<svg width="508" height="130" viewBox="0 0 508 130" fill="none" xmlns="http://www.w3.org/2000/svg">
<path d="M478.452 73.0033V99.6221H467.745V39.0496H478.215V61.9122H478.748C479.813 59.3489 481.459 57.3278 483.687 55.849C485.935 54.3504 488.794 53.6012 492.264 53.6012C495.419 53.6012 498.17 54.2617 500.516 55.5828C502.862 56.9039 504.676 58.8362 505.958 61.3798C507.259 63.9234 507.91 67.0289 507.91 70.6964V99.6221H497.203V72.3526C497.203 69.2964 496.415 66.9204 494.837 65.2247C493.28 63.5093 491.091 62.6516 488.271 62.6516C486.379 62.6516 484.683 63.0656 483.184 63.8938C481.705 64.7022 480.542 65.8754 479.694 67.4134C478.866 68.9514 478.452 70.8147 478.452 73.0033Z" fill="#111111"/>
<path d="M415.689 116.658V54.1924H426.218V61.7048H426.839C427.391 60.6006 428.17 59.4274 429.175 58.1852C430.181 56.9232 431.542 55.8486 433.257 54.9613C434.972 54.0543 437.161 53.6008 439.823 53.6008C443.333 53.6008 446.497 54.498 449.317 56.2923C452.156 58.0669 454.404 60.6992 456.06 64.1892C457.736 67.6595 458.574 71.9185 458.574 76.9662C458.574 81.9548 457.756 86.1941 456.12 89.6841C454.483 93.1741 452.255 95.836 449.435 97.6697C446.616 99.5035 443.421 100.42 439.853 100.42C437.25 100.42 435.091 99.9866 433.375 99.119C431.66 98.2514 430.28 97.2064 429.235 95.9839C428.209 94.7417 427.411 93.5685 426.839 92.4643H426.395V116.658H415.689ZM426.188 76.9071C426.188 79.845 426.602 82.4182 427.43 84.6265C428.278 86.8349 429.491 88.5602 431.068 89.8024C432.665 91.0249 434.598 91.6361 436.865 91.6361C439.231 91.6361 441.213 91.0052 442.81 89.7433C444.407 88.4616 445.61 86.7166 446.418 84.5082C447.247 82.2801 447.661 79.7464 447.661 76.9071C447.661 74.0875 447.256 71.5833 446.448 69.3947C445.64 67.206 444.437 65.4906 442.84 64.2483C441.243 63.0061 439.251 62.385 436.865 62.385C434.578 62.385 432.636 62.9864 431.039 64.1892C429.442 65.392 428.229 67.0778 427.401 69.2468C426.592 71.4157 426.188 73.9691 426.188 76.9071Z" fill="#111111"/>
<path d="M380.938 100.539C378.06 100.539 375.467 100.026 373.16 99.0007C370.873 97.9557 369.059 96.4177 367.718 94.3868C366.397 92.3558 365.736 89.8517 365.736 86.8743C365.736 84.311 366.209 82.1914 367.156 80.5154C368.102 78.8394 369.394 77.4986 371.03 76.493C372.667 75.4874 374.51 74.7283 376.561 74.2156C378.631 73.6832 380.771 73.2987 382.979 73.0621C385.641 72.7861 387.8 72.5396 389.456 72.3227C391.113 72.0861 392.315 71.7312 393.065 71.258C393.834 70.765 394.218 70.0059 394.218 68.9806V68.8031C394.218 66.575 393.558 64.8497 392.237 63.6272C390.915 62.4048 389.013 61.7935 386.528 61.7935C383.906 61.7935 381.826 62.3653 380.288 63.5089C378.769 64.6526 377.744 66.0032 377.212 67.5609L367.215 66.1412C368.004 63.3808 369.305 61.0738 371.119 59.2204C372.933 57.3472 375.151 55.9472 377.774 55.0205C380.396 54.0741 383.295 53.6008 386.469 53.6008C388.658 53.6008 390.837 53.8572 393.006 54.3698C395.175 54.8825 397.156 55.7303 398.95 56.9134C400.745 58.0767 402.184 59.664 403.269 61.6752C404.373 63.6864 404.925 66.2004 404.925 69.2172V99.6218H394.632V93.3812H394.277C393.627 94.6431 392.71 95.8261 391.527 96.9303C390.363 98.0148 388.894 98.8922 387.12 99.5626C385.365 100.213 383.304 100.539 380.938 100.539ZM383.719 92.6713C385.868 92.6713 387.731 92.2474 389.309 91.3995C390.886 90.532 392.099 89.3883 392.946 87.9687C393.814 86.549 394.248 85.0012 394.248 83.3252V77.9718C393.913 78.2479 393.341 78.5042 392.532 78.7408C391.744 78.9774 390.856 79.1845 389.87 79.3619C388.885 79.5394 387.909 79.6971 386.942 79.8351C385.976 79.9732 385.138 80.0915 384.428 80.1901C382.831 80.407 381.402 80.7619 380.14 81.2548C378.878 81.7478 377.882 82.4379 377.153 83.3252C376.423 84.1927 376.058 85.3166 376.058 86.6969C376.058 88.6686 376.778 90.1573 378.217 91.1629C379.657 92.1685 381.49 92.6713 383.719 92.6713Z" fill="#111111"/>
<path d="M335.652 99.6214V54.1919H346.033V61.7635H346.506C347.334 59.1411 348.754 57.12 350.765 55.7003C352.796 54.261 355.113 53.5413 357.716 53.5413C358.307 53.5413 358.968 53.5708 359.697 53.63C360.446 53.6694 361.068 53.7384 361.561 53.837V63.686C361.107 63.5282 360.387 63.3902 359.401 63.2719C358.435 63.1339 357.499 63.0649 356.592 63.0649C354.64 63.0649 352.885 63.4888 351.327 64.3367C349.789 65.1648 348.576 66.3183 347.689 67.7971C346.802 69.2759 346.358 70.9815 346.358 72.9138V99.6214H335.652Z" fill="#111111"/>
<path d="M303.359 117.604C299.514 117.604 296.211 117.082 293.45 116.037C290.69 115.011 288.472 113.631 286.796 111.896C285.12 110.161 283.956 108.238 283.306 106.129L292.948 103.792C293.381 104.679 294.012 105.557 294.841 106.424C295.669 107.312 296.783 108.041 298.183 108.613C299.602 109.205 301.387 109.5 303.536 109.5C306.573 109.5 309.087 108.761 311.078 107.282C313.07 105.823 314.065 103.417 314.065 100.065V91.4587H313.533C312.981 92.5629 312.172 93.6966 311.108 94.86C310.063 96.0233 308.672 96.9993 306.937 97.788C305.222 98.5768 303.063 98.9711 300.46 98.9711C296.97 98.9711 293.805 98.1528 290.966 96.5163C288.146 94.86 285.899 92.3953 284.223 89.1222C282.566 85.8293 281.738 81.7083 281.738 76.7592C281.738 71.7706 282.566 67.5609 284.223 64.13C285.899 60.6795 288.156 58.0669 290.996 56.2923C293.835 54.498 297 53.6008 300.49 53.6008C303.152 53.6008 305.34 54.0543 307.056 54.9613C308.791 55.8486 310.171 56.9232 311.196 58.1852C312.222 59.4274 313 60.6006 313.533 61.7048H314.124V54.1924H324.683V100.361C324.683 104.246 323.756 107.46 321.903 110.003C320.05 112.547 317.516 114.449 314.302 115.711C311.088 116.973 307.44 117.604 303.359 117.604ZM303.447 90.5714C305.715 90.5714 307.647 90.0193 309.244 88.9151C310.841 87.8109 312.054 86.2237 312.882 84.1533C313.71 82.083 314.124 79.5985 314.124 76.7C314.124 73.841 313.71 71.3368 312.882 69.1876C312.074 67.0384 310.871 65.3723 309.274 64.1892C307.696 62.9864 305.754 62.385 303.447 62.385C301.061 62.385 299.07 63.0061 297.473 64.2483C295.876 65.4906 294.673 67.1961 293.865 69.3651C293.056 71.5143 292.652 73.9593 292.652 76.7C292.652 79.4802 293.056 81.9154 293.865 84.0054C294.693 86.0758 295.905 87.6926 297.502 88.856C299.119 89.9996 301.101 90.5714 303.447 90.5714Z" fill="#111111"/>
<path d="M252.745 100.509C248.308 100.509 244.463 99.5331 241.21 97.581C237.956 95.629 235.433 92.8981 233.638 89.3883C231.864 85.8786 230.976 81.7773 230.976 77.0845C230.976 72.3917 231.864 68.2806 233.638 64.7511C235.433 61.2217 237.956 58.4809 241.21 56.5289C244.463 54.5769 248.308 53.6008 252.745 53.6008C257.181 53.6008 261.026 54.5769 264.279 56.5289C267.533 58.4809 270.047 61.2217 271.821 64.7511C273.616 68.2806 274.513 72.3917 274.513 77.0845C274.513 81.7773 273.616 85.8786 271.821 89.3883C270.047 92.8981 267.533 95.629 264.279 97.581C261.026 99.5331 257.181 100.509 252.745 100.509ZM252.804 91.9319C255.209 91.9319 257.221 91.2714 258.837 89.9503C260.454 88.6095 261.657 86.8152 262.446 84.5674C263.254 82.3196 263.658 79.8154 263.658 77.055C263.658 74.2748 263.254 71.7608 262.446 69.513C261.657 67.2454 260.454 65.4413 258.837 64.1005C257.221 62.7597 255.209 62.0893 252.804 62.0893C250.339 62.0893 248.288 62.7597 246.652 64.1005C245.035 65.4413 243.822 67.2454 243.014 69.513C242.225 71.7608 241.831 74.2748 241.831 77.055C241.831 79.8154 242.225 82.3196 243.014 84.5674C243.822 86.8152 245.035 88.6095 246.652 89.9503C248.288 91.2714 250.339 91.9319 252.804 91.9319Z" fill="#111111"/>
<path d="M180.871 116.658V54.1924H191.401V61.7048H192.022C192.574 60.6006 193.353 59.4274 194.358 58.1852C195.364 56.9232 196.724 55.8486 198.44 54.9613C200.155 54.0543 202.344 53.6008 205.006 53.6008C208.516 53.6008 211.68 54.498 214.5 56.2923C217.339 58.0669 219.587 60.6992 221.243 64.1892C222.919 67.6595 223.757 71.9185 223.757 76.9662C223.757 81.9548 222.939 86.1941 221.302 89.6841C219.666 93.1741 217.438 95.836 214.618 97.6697C211.799 99.5035 208.604 100.42 205.035 100.42C202.433 100.42 200.274 99.9866 198.558 99.119C196.843 98.2514 195.463 97.2064 194.417 95.9839C193.392 94.7417 192.594 93.5685 192.022 92.4643H191.578V116.658H180.871ZM191.371 76.9071C191.371 79.845 191.785 82.4182 192.613 84.6265C193.461 86.8349 194.674 88.5602 196.251 89.8024C197.848 91.0249 199.781 91.6361 202.048 91.6361C204.414 91.6361 206.396 91.0052 207.993 89.7433C209.59 88.4616 210.793 86.7166 211.601 84.5082C212.43 82.2801 212.844 79.7464 212.844 76.9071C212.844 74.0875 212.439 71.5833 211.631 69.3947C210.823 67.206 209.62 65.4906 208.023 64.2483C206.426 63.0061 204.434 62.385 202.048 62.385C199.761 62.385 197.819 62.9864 196.222 64.1892C194.625 65.392 193.412 67.0778 192.584 69.2468C191.775 71.4157 191.371 73.9691 191.371 76.9071Z" fill="#111111"/>
<path d="M139.541 116.658C138.082 116.658 136.731 116.54 135.489 116.303C134.267 116.086 133.291 115.83 132.561 115.534L135.045 107.194C136.603 107.647 137.993 107.864 139.216 107.844C140.438 107.825 141.513 107.44 142.44 106.691C143.386 105.961 144.185 104.739 144.835 103.023L145.752 100.569L129.278 54.1926H140.635L151.105 88.5013H151.579L162.078 54.1926H173.465L155.276 105.123C154.428 107.529 153.304 109.589 151.904 111.305C150.504 113.04 148.789 114.361 146.758 115.268C144.747 116.195 142.341 116.658 139.541 116.658Z" fill="#111111"/>
<path d="M36.1559 54.3426L33.2455 44.1929L81.066 30.4806L83.9764 40.6303L66.1503 45.7419L79.936 93.8182L67.7677 97.3074L53.982 49.2311L36.1559 54.3426Z" fill="#111111"/>
<path fill-rule="evenodd" clip-rule="evenodd" d="M30.8727 30.4321C30.4199 28.8529 31.3329 27.2057 32.9121 26.7529L44.6217 23.3952C46.2008 22.9424 47.8481 23.8555 48.3009 25.4346C48.7537 27.0138 47.8406 28.661 46.2615 29.1139L34.5519 32.4715C32.9727 32.9243 31.3255 32.0113 30.8727 30.4321ZM58.195 22.5975C57.7422 21.0184 58.6553 19.3711 60.2345 18.9183L71.944 15.5607C73.5232 15.1078 75.1704 16.0209 75.6232 17.6001C76.0761 19.1792 75.163 20.8265 73.5838 21.2793L61.8742 24.637C60.2951 25.0898 58.6478 24.1767 58.195 22.5975ZM17.6002 54.3762C19.1794 53.9234 20.8266 54.8365 21.2795 56.4156L24.6371 68.1252C25.0899 69.7043 24.1769 71.3516 22.5977 71.8044C21.0186 72.2572 19.3713 71.3441 18.9185 69.765L15.5608 58.0554C15.108 56.4762 16.0211 54.829 17.6002 54.3762ZM99.5673 30.8725C101.146 30.4197 102.794 31.3328 103.247 32.9119L106.604 44.6215C107.057 46.2007 106.144 47.8479 104.565 48.3007C102.986 48.7535 101.338 47.8405 100.886 46.2613L97.5279 34.5517C97.0751 32.9726 97.9882 31.3253 99.5673 30.8725ZM25.4348 81.6985C27.014 81.2457 28.6612 82.1588 29.114 83.738L32.4717 95.4476C32.9245 97.0267 32.0114 98.6739 30.4323 99.1268C28.8531 99.5796 27.2059 98.6665 26.7531 97.0873L23.3954 85.3778C22.9426 83.7986 23.8557 82.1514 25.4348 81.6985ZM107.402 58.1949C108.981 57.7421 110.628 58.6551 111.081 60.2343L114.439 71.9439C114.892 73.523 113.979 75.1703 112.399 75.6231C110.82 76.0759 109.173 75.1628 108.72 73.5837L105.362 61.8741C104.91 60.2949 105.823 58.6477 107.402 58.1949ZM54.3764 112.399C53.9235 110.82 54.8366 109.173 56.4158 108.72L68.1254 105.362C69.7045 104.909 71.3518 105.823 71.8046 107.402C72.2574 108.981 71.3443 110.628 69.7651 111.081L58.0556 114.439C56.4764 114.891 54.8292 113.978 54.3764 112.399ZM81.6987 104.565C81.2459 102.985 82.159 101.338 83.7381 100.885L95.4477 97.5277C97.0269 97.0749 98.6741 97.988 99.1269 99.5672C99.5797 101.146 98.6667 102.794 97.0875 103.246L85.3779 106.604C83.7988 107.057 82.1515 106.144 81.6987 104.565Z" fill="#1B6AE3"/>
<path fill-rule="evenodd" clip-rule="evenodd" d="M24.0517 112.845C23.7498 111.792 24.3586 110.694 25.4113 110.392L40.661 106.019C41.7138 105.717 42.812 106.326 43.1138 107.379L47.4866 122.628C47.7885 123.681 47.1798 124.779 46.127 125.081L30.8773 129.454C29.8245 129.756 28.7264 129.147 28.4245 128.094L24.0517 112.845ZM28.4107 113.658L31.6903 125.095L43.1276 121.815L39.848 110.378L28.4107 113.658Z" fill="#1B6AE3"/>
<path fill-rule="evenodd" clip-rule="evenodd" d="M0.546597 30.8767C0.24472 29.8239 0.85344 28.7257 1.90621 28.4239L17.1559 24.0511C18.2087 23.7492 19.3068 24.3579 19.6087 25.4107L23.9815 40.6604C24.2834 41.7132 23.6746 42.8113 22.6219 43.1132L7.37218 47.486C6.31941 47.7879 5.22125 47.1791 4.91938 46.1264L0.546597 30.8767ZM4.90562 31.6897L8.1852 43.127L19.6225 39.8474L16.3429 28.4101L4.90562 31.6897Z" fill="#1B6AE3"/>
<path fill-rule="evenodd" clip-rule="evenodd" d="M82.5133 7.37228C82.2115 6.3195 82.8202 5.22134 83.8729 4.91947L99.1226 0.546689C100.175 0.244811 101.274 0.853531 101.575 1.9063L105.948 17.156C106.25 18.2088 105.641 19.3069 104.589 19.6088L89.3389 23.9816C88.2861 24.2835 87.188 23.6747 86.8861 22.622L82.5133 7.37228ZM86.8724 8.18529L90.1519 19.6226L101.589 16.343L98.3096 4.90571L86.8724 8.18529Z" fill="#1B6AE3"/>
<path fill-rule="evenodd" clip-rule="evenodd" d="M106.018 89.3408C105.717 88.288 106.325 87.1899 107.378 86.888L122.628 82.5152C123.681 82.2133 124.779 82.822 125.081 83.8748L129.453 99.1245C129.755 100.177 129.147 101.275 128.094 101.577L112.844 105.95C111.791 106.252 110.693 105.643 110.391 104.59L106.018 89.3408ZM110.377 90.1538L113.657 101.591L125.094 98.3115L121.815 86.8742L110.377 90.1538Z" fill="#1B6AE3"/>
</svg>
