<svg width="508" height="130" viewBox="0 0 508 130" fill="none" xmlns="http://www.w3.org/2000/svg">
<path d="M478.452 73.0032V99.622H467.745V39.0494H478.215V61.912H478.748C479.812 59.3487 481.459 57.3277 483.687 55.8489C485.935 54.3503 488.794 53.6011 492.264 53.6011C495.419 53.6011 498.169 54.2616 500.516 55.5827C502.862 56.9038 504.676 58.8361 505.958 61.3797C507.259 63.9232 507.91 67.0288 507.91 70.6962V99.622H497.203V72.3525C497.203 69.2963 496.415 66.9203 494.837 65.2246C493.279 63.5092 491.091 62.6514 488.271 62.6514C486.378 62.6514 484.683 63.0655 483.184 63.8937C481.705 64.7021 480.542 65.8753 479.694 67.4133C478.866 68.9512 478.452 70.8145 478.452 73.0032Z" fill="white"/>
<path d="M415.688 116.658V54.1922H426.218V61.7047H426.839C427.391 60.6005 428.17 59.4273 429.175 58.1851C430.181 56.9231 431.541 55.8485 433.257 54.9612C434.972 54.0542 437.161 53.6007 439.823 53.6007C443.333 53.6007 446.497 54.4979 449.317 56.2922C452.156 58.0668 454.404 60.6991 456.06 64.1891C457.736 67.6594 458.574 71.9184 458.574 76.9661C458.574 81.9547 457.756 86.194 456.119 89.684C454.483 93.174 452.255 95.8359 449.435 97.6696C446.616 99.5034 443.421 100.42 439.852 100.42C437.25 100.42 435.091 99.9864 433.375 99.1189C431.66 98.2513 430.28 97.2063 429.234 95.9838C428.209 94.7416 427.411 93.5684 426.839 92.4642H426.395V116.658H415.688ZM426.188 76.9069C426.188 79.8449 426.602 82.418 427.43 84.6264C428.278 86.8348 429.491 88.5601 431.068 89.8023C432.665 91.0248 434.598 91.636 436.865 91.636C439.231 91.636 441.213 91.0051 442.81 89.7431C444.407 88.4615 445.61 86.7165 446.418 84.5081C447.247 82.28 447.661 79.7463 447.661 76.9069C447.661 74.0873 447.256 71.5832 446.448 69.3945C445.64 67.2059 444.437 65.4904 442.84 64.2482C441.243 63.006 439.251 62.3849 436.865 62.3849C434.578 62.3849 432.636 62.9863 431.039 64.1891C429.441 65.3919 428.229 67.0777 427.401 69.2466C426.592 71.4156 426.188 73.969 426.188 76.9069Z" fill="white"/>
<path d="M380.938 100.539C378.059 100.539 375.466 100.026 373.16 99.0006C370.872 97.9555 369.058 96.4176 367.717 94.3866C366.396 92.3557 365.736 89.8516 365.736 86.8742C365.736 84.3109 366.209 82.1913 367.155 80.5153C368.102 78.8393 369.393 77.4985 371.03 76.4929C372.667 75.4873 374.51 74.7282 376.561 74.2155C378.631 73.6831 380.771 73.2986 382.979 73.062C385.641 72.786 387.8 72.5395 389.456 72.3226C391.112 72.086 392.315 71.7311 393.064 71.2578C393.833 70.7649 394.218 70.0058 394.218 68.9805V68.803C394.218 66.5749 393.557 64.8496 392.236 63.6271C390.915 62.4046 389.012 61.7934 386.528 61.7934C383.906 61.7934 381.825 62.3652 380.287 63.5088C378.769 64.6524 377.744 66.0031 377.211 67.5608L367.215 66.1411C368.003 63.3807 369.305 61.0737 371.119 59.2202C372.933 57.3471 375.151 55.9471 377.773 55.0204C380.396 54.0739 383.294 53.6007 386.469 53.6007C388.658 53.6007 390.836 53.857 393.005 54.3697C395.174 54.8824 397.156 55.7302 398.95 56.9133C400.744 58.0766 402.184 59.6639 403.268 61.6751C404.373 63.6863 404.925 66.2003 404.925 69.2171V99.6217H394.632V93.381H394.277C393.626 94.643 392.71 95.826 391.526 96.9302C390.363 98.0147 388.894 98.8921 387.12 99.5625C385.365 100.213 383.304 100.539 380.938 100.539ZM383.718 92.6712C385.868 92.6712 387.731 92.2473 389.308 91.3994C390.886 90.5318 392.098 89.3882 392.946 87.9685C393.814 86.5489 394.248 85.001 394.248 83.325V77.9717C393.912 78.2478 393.341 78.5041 392.532 78.7407C391.743 78.9773 390.856 79.1843 389.87 79.3618C388.884 79.5393 387.908 79.697 386.942 79.835C385.976 79.973 385.138 80.0914 384.428 80.1899C382.831 80.4068 381.401 80.7618 380.14 81.2547C378.878 81.7476 377.882 82.4377 377.152 83.325C376.423 84.1926 376.058 85.3165 376.058 86.6968C376.058 88.6685 376.778 90.1572 378.217 91.1628C379.656 92.1684 381.49 92.6712 383.718 92.6712Z" fill="white"/>
<path d="M335.651 99.6214V54.1919H346.033V61.7635H346.506C347.334 59.1411 348.754 57.12 350.765 55.7003C352.796 54.261 355.113 53.5413 357.715 53.5413C358.307 53.5413 358.967 53.5708 359.697 53.63C360.446 53.6694 361.067 53.7384 361.56 53.837V63.686C361.107 63.5282 360.387 63.3902 359.401 63.2719C358.435 63.1339 357.499 63.0649 356.592 63.0649C354.639 63.0649 352.885 63.4888 351.327 64.3367C349.789 65.1648 348.576 66.3183 347.689 67.7971C346.802 69.2759 346.358 70.9815 346.358 72.9138V99.6214H335.651Z" fill="white"/>
<path d="M303.358 117.604C299.513 117.604 296.211 117.082 293.45 116.037C290.69 115.011 288.471 113.631 286.795 111.896C285.119 110.161 283.956 108.238 283.305 106.128L292.947 103.792C293.381 104.679 294.012 105.557 294.84 106.424C295.668 107.312 296.782 108.041 298.182 108.613C299.602 109.204 301.386 109.5 303.536 109.5C306.572 109.5 309.086 108.761 311.078 107.282C313.069 105.823 314.065 103.417 314.065 100.065V91.4586H313.532C312.98 92.5628 312.172 93.6965 311.107 94.8599C310.062 96.0232 308.672 96.9992 306.937 97.7879C305.221 98.5766 303.062 98.971 300.46 98.971C296.97 98.971 293.805 98.1527 290.966 96.5161C288.146 94.8599 285.898 92.3952 284.222 89.122C282.566 85.8292 281.738 81.7082 281.738 76.7591C281.738 71.7705 282.566 67.5608 284.222 64.1299C285.898 60.6793 288.156 58.0668 290.995 56.2922C293.835 54.4979 296.999 53.6007 300.489 53.6007C303.151 53.6007 305.34 54.0542 307.055 54.9612C308.79 55.8485 310.171 56.9231 311.196 58.1851C312.221 59.4273 313 60.6005 313.532 61.7047H314.124V54.1922H324.683V100.361C324.683 104.245 323.756 107.459 321.903 110.003C320.049 112.547 317.515 114.449 314.301 115.711C311.087 116.973 307.44 117.604 303.358 117.604ZM303.447 90.5713C305.714 90.5713 307.647 90.0192 309.244 88.915C310.841 87.8108 312.054 86.2235 312.882 84.1532C313.71 82.0828 314.124 79.5984 314.124 76.6999C314.124 73.8409 313.71 71.3367 312.882 69.1875C312.073 67.0383 310.871 65.3721 309.273 64.1891C307.696 62.9863 305.754 62.3849 303.447 62.3849C301.061 62.3849 299.07 63.006 297.472 64.2482C295.875 65.4904 294.673 67.196 293.864 69.365C293.056 71.5142 292.651 73.9592 292.651 76.6999C292.651 79.4801 293.056 81.9152 293.864 84.0053C294.692 86.0757 295.905 87.6925 297.502 88.8558C299.119 89.9995 301.101 90.5713 303.447 90.5713Z" fill="white"/>
<path d="M252.744 100.509C248.308 100.509 244.463 99.5329 241.21 97.5809C237.956 95.6288 235.432 92.898 233.638 89.3882C231.863 85.8785 230.976 81.7772 230.976 77.0844C230.976 72.3916 231.863 68.2805 233.638 64.751C235.432 61.2216 237.956 58.4808 241.21 56.5288C244.463 54.5767 248.308 53.6007 252.744 53.6007C257.181 53.6007 261.026 54.5767 264.279 56.5288C267.533 58.4808 270.047 61.2216 271.821 64.751C273.615 68.2805 274.513 72.3916 274.513 77.0844C274.513 81.7772 273.615 85.8785 271.821 89.3882C270.047 92.898 267.533 95.6288 264.279 97.5809C261.026 99.5329 257.181 100.509 252.744 100.509ZM252.803 91.9318C255.209 91.9318 257.22 91.2712 258.837 89.9502C260.454 88.6094 261.657 86.8151 262.445 84.5673C263.254 82.3194 263.658 79.8153 263.658 77.0548C263.658 74.2746 263.254 71.7606 262.445 69.5128C261.657 67.2453 260.454 65.4411 258.837 64.1003C257.22 62.7595 255.209 62.0891 252.803 62.0891C250.339 62.0891 248.288 62.7595 246.652 64.1003C245.035 65.4411 243.822 67.2453 243.014 69.5128C242.225 71.7606 241.831 74.2746 241.831 77.0548C241.831 79.8153 242.225 82.3194 243.014 84.5673C243.822 86.8151 245.035 88.6094 246.652 89.9502C248.288 91.2712 250.339 91.9318 252.803 91.9318Z" fill="white"/>
<path d="M180.871 116.658V54.1922H191.4V61.7047H192.021C192.574 60.6005 193.352 59.4273 194.358 58.1851C195.364 56.9231 196.724 55.8485 198.44 54.9612C200.155 54.0542 202.344 53.6007 205.005 53.6007C208.515 53.6007 211.68 54.4979 214.5 56.2922C217.339 58.0668 219.587 60.6991 221.243 64.1891C222.919 67.6594 223.757 71.9184 223.757 76.9661C223.757 81.9547 222.939 86.194 221.302 89.684C219.666 93.174 217.437 95.8359 214.618 97.6696C211.798 99.5034 208.604 100.42 205.035 100.42C202.432 100.42 200.273 99.9864 198.558 99.1189C196.842 98.2513 195.462 97.2063 194.417 95.9838C193.392 94.7416 192.593 93.5684 192.021 92.4642H191.578V116.658H180.871ZM191.371 76.9069C191.371 79.8449 191.785 82.418 192.613 84.6264C193.461 86.8348 194.673 88.5601 196.251 89.8023C197.848 91.0248 199.78 91.636 202.048 91.636C204.414 91.636 206.396 91.0051 207.993 89.7431C209.59 88.4615 210.793 86.7165 211.601 84.5081C212.429 82.28 212.843 79.7463 212.843 76.9069C212.843 74.0873 212.439 71.5832 211.631 69.3945C210.822 67.2059 209.619 65.4904 208.022 64.2482C206.425 63.006 204.434 62.3849 202.048 62.3849C199.761 62.3849 197.818 62.9863 196.221 64.1891C194.624 65.3919 193.412 67.0777 192.583 69.2466C191.775 71.4156 191.371 73.969 191.371 76.9069Z" fill="white"/>
<path d="M139.541 116.658C138.082 116.658 136.731 116.54 135.489 116.303C134.266 116.086 133.29 115.83 132.561 115.534L135.045 107.194C136.603 107.647 137.993 107.864 139.216 107.844C140.438 107.824 141.513 107.44 142.439 106.691C143.386 105.961 144.184 104.739 144.835 103.023L145.752 100.568L129.278 54.1925H140.635L151.105 88.5012H151.578L162.078 54.1925H173.465L155.276 105.123C154.428 107.529 153.304 109.589 151.904 111.305C150.504 113.04 148.788 114.361 146.758 115.268C144.746 116.195 142.341 116.658 139.541 116.658Z" fill="white"/>
<path d="M36.156 54.3428L33.2456 44.193L81.066 30.4807L83.9764 40.6305L66.1504 45.742L79.9361 93.8183L67.7677 97.3075L53.9821 49.2312L36.156 54.3428Z" fill="white"/>
<path fill-rule="evenodd" clip-rule="evenodd" d="M30.8729 30.4322C30.4201 28.8531 31.3332 27.2058 32.9123 26.753L44.6219 23.3953C46.2011 22.9425 47.8483 23.8556 48.3011 25.4348C48.7539 27.0139 47.8409 28.6612 46.2617 29.114L34.5521 32.4716C32.973 32.9245 31.3257 32.0114 30.8729 30.4322ZM58.1953 22.5977C57.7425 21.0185 58.6555 19.3713 60.2347 18.9185L71.9443 15.5608C73.5234 15.108 75.1707 16.0211 75.6235 17.6002C76.0763 19.1794 75.1632 20.8266 73.5841 21.2794L61.8745 24.6371C60.2953 25.0899 58.6481 24.1768 58.1953 22.5977ZM17.6005 54.3763C19.1796 53.9235 20.8269 54.8366 21.2797 56.4157L24.6374 68.1253C25.0902 69.7045 24.1771 71.3517 22.598 71.8045C21.0188 72.2573 19.3716 71.3443 18.9187 69.7651L15.5611 58.0555C15.1083 56.4764 16.0213 54.8291 17.6005 54.3763ZM99.5676 30.8726C101.147 30.4198 102.794 31.3329 103.247 32.9121L106.604 44.6216C107.057 46.2008 106.144 47.848 104.565 48.3008C102.986 48.7537 101.339 47.8406 100.886 46.2614L97.5282 34.5518C97.0753 32.9727 97.9884 31.3254 99.5676 30.8726ZM25.4351 81.6987C27.0142 81.2459 28.6614 82.1589 29.1143 83.7381L32.4719 95.4477C32.9247 97.0268 32.0117 98.6741 30.4325 99.1269C28.8534 99.5797 27.2061 98.6666 26.7533 97.0875L23.3956 85.3779C22.9428 83.7987 23.8559 82.1515 25.4351 81.6987ZM107.402 58.195C108.981 57.7422 110.629 58.6553 111.081 60.2344L114.439 71.944C114.892 73.5231 113.979 75.1704 112.4 75.6232C110.82 76.076 109.173 75.1629 108.72 73.5838L105.363 61.8742C104.91 60.295 105.823 58.6478 107.402 58.195ZM54.3766 112.399C53.9238 110.82 54.8369 109.173 56.416 108.72L68.1256 105.362C69.7048 104.91 71.352 105.823 71.8048 107.402C72.2576 108.981 71.3445 110.628 69.7654 111.081L58.0558 114.439C56.4767 114.892 54.8294 113.978 54.3766 112.399ZM81.699 104.565C81.2461 102.986 82.1592 101.338 83.7384 100.886L95.448 97.5279C97.0271 97.0751 98.6744 97.9881 99.1272 99.5673C99.58 101.146 98.6669 102.794 97.0878 103.247L85.3782 106.604C83.799 107.057 82.1518 106.144 81.699 104.565Z" fill="#1B6AE3"/>
<path fill-rule="evenodd" clip-rule="evenodd" d="M24.0515 112.845C23.7496 111.792 24.3583 110.694 25.4111 110.392L40.6608 106.019C41.7136 105.717 42.8117 106.326 43.1136 107.379L47.4864 122.628C47.7882 123.681 47.1795 124.779 46.1268 125.081L30.8771 129.454C29.8243 129.756 28.7261 129.147 28.4243 128.094L24.0515 112.845ZM28.4105 113.658L31.6901 125.095L43.1274 121.815L39.8478 110.378L28.4105 113.658Z" fill="#1B6AE3"/>
<path fill-rule="evenodd" clip-rule="evenodd" d="M0.546597 30.8768C0.24472 29.824 0.85344 28.7259 1.90621 28.424L17.1559 24.0512C18.2087 23.7493 19.3068 24.358 19.6087 25.4108L23.9815 40.6605C24.2834 41.7133 23.6746 42.8114 22.6219 43.1133L7.37218 47.4861C6.31941 47.788 5.22125 47.1793 4.91938 46.1265L0.546597 30.8768ZM4.90562 31.6898L8.1852 43.1271L19.6225 39.8475L16.3429 28.4102L4.90562 31.6898Z" fill="#1B6AE3"/>
<path fill-rule="evenodd" clip-rule="evenodd" d="M82.5134 7.37215C82.2115 6.31938 82.8202 5.22122 83.873 4.91935L99.1227 0.546567C100.175 0.244689 101.274 0.853409 101.576 1.90618L105.948 17.1559C106.25 18.2086 105.641 19.3068 104.589 19.6087L89.339 23.9815C88.2862 24.2833 87.188 23.6746 86.8862 22.6218L82.5134 7.37215ZM86.8724 8.18517L90.152 19.6224L101.589 16.3429L98.3097 4.90559L86.8724 8.18517Z" fill="#1B6AE3"/>
<path fill-rule="evenodd" clip-rule="evenodd" d="M106.018 89.3408C105.716 88.288 106.325 87.1899 107.378 86.888L122.628 82.5152C123.68 82.2133 124.779 82.822 125.08 83.8748L129.453 99.1245C129.755 100.177 129.146 101.275 128.094 101.577L112.844 105.95C111.791 106.252 110.693 105.643 110.391 104.59L106.018 89.3408ZM110.377 90.1538L113.657 101.591L125.094 98.3115L121.815 86.8742L110.377 90.1538Z" fill="#1B6AE3"/>
</svg>
